<?xml version="1.0" encoding="utf-8"?>
<!-- Generator: Adobe Illustrator 16.0.0, SVG Export Plug-In . SVG Version: 6.00 Build 0)  -->
<!DOCTYPE svg PUBLIC "-//W3C//DTD SVG 1.1 Tiny//EN" "http://www.w3.org/Graphics/SVG/1.1/DTD/svg11-tiny.dtd">
<svg version="1.1" baseProfile="tiny" xmlns="http://www.w3.org/2000/svg" xmlns:xlink="http://www.w3.org/1999/xlink" x="0px"
	 y="0px" width="250px" height="54px" viewBox="0 0 250 54" xml:space="preserve">
<g id="Capa_2">
	<g>
		<path fill="#F29267" d="M9.6,47l-0.1-0.1c-0.8-0.7-1.6-1.5-2.4-2.4L7,44.4V33h14v14H9.6z"/>
		<path fill="#F29267" d="M20,33H7v10.7c0.7,0.8,1.5,1.6,2.3,2.3H20V33z"/>
		<path fill="#F4A072" d="M7.1,44.5c-2.8-3.1-4.8-6.9-5.8-10.9L1.2,33H8v12.5L7.1,44.5z"/>
		<path fill="#F4A072" d="M1.3,33c1,4,3,7.7,5.7,10.7V33H1.3z"/>
		<rect x="20" y="33" fill="#EF7953" width="14" height="14"/>
		<rect x="20" y="33" fill="#EF7953" width="13" height="13"/>
		<path fill="#ED6747" d="M33,47V33h14v11.4l-0.1,0.1c-0.7,0.8-1.5,1.6-2.4,2.4L44.4,47H33z"/>
		<path fill="#ED6747" d="M33,33v13h10.7c0.8-0.7,1.6-1.5,2.3-2.3V33H33z"/>
		<path fill="#E54F34" d="M46,33h6.8l-0.2,0.6c-1,4-3,7.8-5.8,10.9l-0.9,1V33z"/>
		<path fill="#E54F34" d="M46,43.7c2.7-3,4.6-6.7,5.7-10.7H46V43.7z"/>
		<path fill="#F08457" d="M20.4,52.7c-4-1-7.8-3-10.9-5.8l-1-0.9H21v6.8L20.4,52.7z"/>
		<path fill="#F08457" d="M9.3,46c3,2.7,6.7,4.6,10.7,5.7V46H9.3z"/>
		<path fill="#EC653E" d="M27,53.5c-2.2,0-4.5-0.3-6.6-0.8L20,52.6V46h14v6.6l-0.4,0.1C31.5,53.2,29.2,53.5,27,53.5z"/>
		<path fill="#EC653E" d="M20,46v5.7c2.1,0.5,4.3,0.8,6.5,0.8s4.4-0.3,6.5-0.8V46H20z"/>
		<path fill="#E24F33" d="M33,46h12.5l-1,0.9c-3.1,2.8-6.9,4.8-10.9,5.8L33,52.8V46z"/>
		<path fill="#E24F33" d="M33,51.7c4-1,7.7-3,10.7-5.7H33V51.7z"/>
		<rect x="7" y="20" fill="#F5A371" width="14" height="14"/>
		<rect x="7" y="20" fill="#F5A371" width="13" height="13"/>
		<path fill="#F6AB79" d="M1.4,34l-0.1-0.4c-0.6-2.2-0.8-4.4-0.8-6.6c0-2.2,0.3-4.5,0.8-6.6L1.4,20H8v14H1.4z"/>
		<path fill="#F6AB79" d="M7,20H1.3c-0.5,2.1-0.8,4.3-0.8,6.5c0,2.2,0.3,4.4,0.8,6.5H7V20z"/>
		<rect x="20" y="20" fill="#F28E5E" width="14" height="14"/>
		<rect x="20" y="20" fill="#F28E5E" width="13" height="13"/>
		<rect x="33" y="20" fill="#EF7B53" width="14" height="14"/>
		<rect x="33" y="20" fill="#EF7B53" width="13" height="13"/>
		<path fill="#EC653E" d="M46,34V20h6.6l0.1,0.4c0.6,2.2,0.8,4.4,0.8,6.6c0,2.2-0.3,4.5-0.8,6.6L52.6,34H46z"/>
		<path fill="#EC653E" d="M46,33h5.7c0.5-2.1,0.8-4.3,0.8-6.5c0-2.2-0.3-4.4-0.8-6.5H46V33z"/>
		<path fill="#F9BA84" d="M7,21V9.6l0.1-0.1c0.7-0.8,1.5-1.6,2.4-2.4L9.6,7H21v14H7z"/>
		<path fill="#F9BA84" d="M20,20V7H9.3C8.5,7.7,7.7,8.5,7,9.3V20H20z"/>
		<path fill="#FBC892" d="M1.2,21l0.2-0.6c1-4,3-7.8,5.8-10.9l0.9-1V21H1.2z"/>
		<path fill="#FBC892" d="M7,9.3C4.3,12.3,2.4,16,1.3,20H7V9.3z"/>
		<rect x="20" y="7" fill="#F5A371" width="14" height="14"/>
		<rect x="20" y="7" fill="#F5A371" width="13" height="13"/>
		<path fill="#F29267" d="M33,21V7h11.4l0.1,0.1c0.8,0.7,1.6,1.5,2.4,2.4L47,9.6V21H33z"/>
		<path fill="#F29267" d="M43.7,7H33v13h13V9.3C45.3,8.5,44.5,7.7,43.7,7z"/>
		<path fill="#F07E52" d="M46,21V8.5l0.9,1c2.8,3.1,4.8,6.9,5.8,10.9l0.2,0.6H46z"/>
		<path fill="#F07E52" d="M51.7,20c-1-4-3-7.7-5.7-10.7V20H51.7z"/>
		<path fill="#FBC892" d="M8.5,8l1-0.9c3.1-2.8,6.9-4.8,10.9-5.8L21,1.2V8H8.5z"/>
		<path fill="#FBC892" d="M20,1.3c-4,1-7.7,3-10.7,5.7H20V1.3z"/>
		<path fill="#F7B27F" d="M20,8V1.4l0.4-0.1c2.2-0.6,4.4-0.8,6.6-0.8s4.5,0.3,6.6,0.8L34,1.4V8H20z"/>
		<path fill="#F7B27F" d="M33,7V1.3c-2.1-0.5-4.3-0.8-6.5-0.8S22.1,0.8,20,1.3V7H33z"/>
		<path fill="#F4A072" d="M33,8V1.2l0.6,0.2c4,1,7.8,3,10.9,5.8l1,0.9H33z"/>
		<path fill="#F4A072" d="M43.7,7C40.7,4.3,37,2.4,33,1.3V7H43.7z"/>
	</g>
	<g>
		<path fill="#767676" d="M75.2,20.9c0.3,0.3,0.5,0.7,0.5,1.2v12.3c0,2.3-0.7,3.9-2.1,5c-1.4,1.1-3.2,1.6-5.3,1.6
			c-0.6,0-1.3-0.1-2.3-0.3c-1-0.2-1.7-0.4-2.1-0.6c-0.9-0.4-1.4-0.9-1.4-1.6c0-0.1,0-0.3,0.1-0.4c0.1-0.4,0.3-0.7,0.6-0.9
			c0.3-0.2,0.6-0.3,0.9-0.3c0.2,0,0.4,0,0.5,0.1c0.1,0,0.5,0.2,1.4,0.5c0.8,0.3,1.6,0.5,2.3,0.5c1.4,0,2.4-0.3,3.1-0.8
			c0.7-0.5,1-1.3,1-2.3v-1.3c-0.4,0.6-1,1.1-1.8,1.6c-0.8,0.5-1.7,0.7-2.6,0.7c-1.3,0-2.5-0.3-3.5-1c-1.1-0.7-1.9-1.6-2.5-2.7
			s-0.9-2.5-0.9-4c0-1.5,0.3-2.8,0.9-4c0.6-1.2,1.4-2.1,2.5-2.7c1-0.7,2.2-1,3.5-1c0.9,0,1.8,0.2,2.6,0.6c0.8,0.4,1.5,0.9,2,1.4
			v-0.3c0-0.5,0.2-0.9,0.5-1.2c0.3-0.3,0.7-0.5,1.2-0.5C74.5,20.4,74.9,20.6,75.2,20.9z M71.3,31.4c0.8-0.9,1.2-2,1.2-3.3
			c0-1.3-0.4-2.4-1.2-3.3c-0.8-0.9-1.8-1.3-3-1.3c-1.2,0-2.2,0.4-3,1.3c-0.8,0.9-1.2,2-1.2,3.3c0,1.3,0.4,2.4,1.2,3.3
			c0.8,0.9,1.8,1.3,3,1.3C69.5,32.7,70.5,32.3,71.3,31.4z"/>
		<path fill="#767676" d="M88.4,20.9c0.4,0.3,0.6,0.7,0.6,1.1c0,0.6-0.1,1-0.4,1.3c-0.3,0.3-0.6,0.4-1.1,0.4c-0.3,0-0.6-0.1-0.9-0.2
			c-0.1,0-0.2-0.1-0.4-0.1c-0.2-0.1-0.4-0.1-0.6-0.1c-0.5,0-0.9,0.1-1.4,0.4c-0.4,0.3-0.8,0.7-1.1,1.3c-0.3,0.6-0.4,1.3-0.4,2.1v6.6
			c0,0.5-0.2,0.9-0.5,1.2c-0.3,0.3-0.7,0.5-1.2,0.5s-0.9-0.2-1.2-0.5s-0.5-0.7-0.5-1.2V22.4c0-0.5,0.2-0.9,0.5-1.2s0.7-0.5,1.2-0.5
			s0.9,0.2,1.2,0.5c0.3,0.3,0.5,0.7,0.5,1.2v0.4c0.4-0.8,1-1.3,1.8-1.7s1.6-0.6,2.6-0.6C87.5,20.4,88,20.6,88.4,20.9z"/>
		<path fill="#767676" d="M91.4,18.6C91.2,18.4,91,18,91,17.5V17c0-0.5,0.1-0.9,0.4-1.1c0.3-0.2,0.7-0.3,1.3-0.3
			c0.6,0,1.1,0.1,1.4,0.3c0.3,0.2,0.4,0.6,0.4,1.1v0.5c0,0.5-0.1,0.9-0.4,1.1c-0.3,0.2-0.7,0.3-1.4,0.3
			C92.1,18.9,91.7,18.8,91.4,18.6z M94,35c-0.3,0.3-0.7,0.5-1.2,0.5s-0.9-0.2-1.2-0.5c-0.3-0.3-0.5-0.7-0.5-1.2V22.4
			c0-0.5,0.2-0.9,0.5-1.2c0.3-0.3,0.7-0.5,1.2-0.5s0.9,0.2,1.2,0.5c0.3,0.3,0.5,0.7,0.5,1.2v11.4C94.4,34.3,94.3,34.7,94,35z"/>
		<path fill="#767676" d="M111,15.5c0.3,0.3,0.5,0.7,0.5,1.2v17.1c0,0.5-0.2,0.9-0.5,1.2c-0.3,0.3-0.7,0.5-1.2,0.5s-0.9-0.2-1.2-0.5
			c-0.3-0.3-0.5-0.7-0.5-1.2c-0.5,0.5-1.1,1-1.9,1.4c-0.8,0.4-1.6,0.6-2.5,0.6c-1.3,0-2.4-0.3-3.5-1c-1-0.7-1.9-1.6-2.5-2.7
			s-0.9-2.5-0.9-4c0-1.5,0.3-2.8,0.9-4c0.6-1.2,1.4-2.1,2.4-2.7c1-0.7,2.2-1,3.4-1c0.9,0,1.7,0.2,2.5,0.5c0.8,0.3,1.4,0.7,2,1.2
			v-5.4c0-0.5,0.2-0.9,0.5-1.2c0.3-0.3,0.7-0.5,1.2-0.5S110.7,15.2,111,15.5z M107.2,31.4c0.8-0.9,1.1-2,1.1-3.3
			c0-1.3-0.4-2.4-1.1-3.3c-0.8-0.9-1.7-1.3-2.9-1.3c-1.2,0-2.2,0.4-2.9,1.3c-0.8,0.9-1.1,2-1.1,3.3c0,1.3,0.4,2.4,1.1,3.3
			c0.7,0.9,1.7,1.3,2.9,1.3C105.4,32.7,106.4,32.3,107.2,31.4z"/>
		<path fill="#767676" d="M127.2,28.2c-0.2,0.2-0.4,0.2-0.6,0.2h-10.5c0,1.1,0.2,2.1,0.7,3c0.5,0.9,1.1,1.6,1.9,2.1
			c0.8,0.5,1.8,0.8,3,0.8c0.9,0,1.7-0.2,2.4-0.6c0.7-0.4,1.3-0.8,1.7-1.4c0.2-0.2,0.4-0.3,0.6-0.3c0.2,0,0.4,0.1,0.5,0.2
			c0.1,0.1,0.2,0.3,0.2,0.5c0,0.2-0.1,0.4-0.3,0.6c-0.6,0.7-1.3,1.3-2.2,1.8c-0.9,0.5-1.8,0.7-2.8,0.7c-1.4,0-2.7-0.3-3.8-0.9
			c-1.1-0.6-1.9-1.5-2.6-2.6c-0.6-1.1-0.9-2.4-0.9-3.8c0-1.5,0.3-2.8,0.9-4c0.6-1.1,1.4-2,2.4-2.6c1-0.6,2.1-0.9,3.2-0.9
			c1.1,0,2.1,0.3,3.1,0.8c1,0.5,1.8,1.3,2.4,2.3c0.6,1,0.9,2.2,0.9,3.5C127.5,27.8,127.4,28,127.2,28.2z M118.1,23.7
			c-0.9,0.7-1.5,1.8-1.8,3.2h9.5v-0.2c-0.1-0.8-0.4-1.6-0.8-2.2c-0.5-0.6-1-1.1-1.7-1.4c-0.7-0.3-1.4-0.5-2.1-0.5
			C120,22.6,119,23,118.1,23.7z"/>
		<path fill="#767676" d="M141,34.8c0,0.2-0.1,0.4-0.2,0.6c-0.2,0.2-0.4,0.3-0.6,0.3c-0.3,0-0.5-0.1-0.7-0.4l-4.2-5.5l-4.2,5.5
			c-0.2,0.2-0.4,0.3-0.7,0.3c-0.2,0-0.4-0.1-0.6-0.2c-0.2-0.1-0.2-0.3-0.2-0.5c0-0.2,0.1-0.4,0.2-0.5l4.5-5.8l-4.6-6
			c-0.1-0.1-0.2-0.3-0.2-0.5c0-0.2,0.1-0.4,0.3-0.6c0.2-0.2,0.4-0.2,0.6-0.2c0.3,0,0.5,0.1,0.7,0.4l4.3,5.6l4.2-5.6
			c0.2-0.2,0.4-0.4,0.7-0.4c0.2,0,0.4,0.1,0.6,0.2c0.1,0.1,0.2,0.3,0.2,0.5c0,0.2-0.1,0.4-0.2,0.5l-4.5,5.9l4.5,5.9
			C140.9,34.4,141,34.6,141,34.8z"/>
		<path fill="#767676" d="M156.2,21.6c0.2,0.2,0.2,0.4,0.2,0.6v12.5c0,0.2-0.1,0.4-0.2,0.6c-0.2,0.2-0.4,0.2-0.6,0.2
			c-0.2,0-0.4-0.1-0.6-0.2s-0.2-0.4-0.2-0.6v-1.9c-0.5,0.8-1.2,1.5-2.1,2.1c-0.9,0.6-1.9,0.9-3,0.9c-1.2,0-2.4-0.3-3.3-1
			c-1-0.6-1.8-1.5-2.3-2.7c-0.6-1.1-0.8-2.4-0.8-3.8s0.3-2.7,0.9-3.8c0.6-1.1,1.4-2,2.3-2.6c1-0.6,2.1-0.9,3.3-0.9
			c1.1,0,2.1,0.3,3,0.8c0.9,0.5,1.6,1.2,2.1,2.1v-1.7c0-0.2,0.1-0.4,0.2-0.6s0.4-0.2,0.6-0.2C155.9,21.4,156.1,21.4,156.2,21.6z
			 M152.4,33.5c0.8-0.5,1.4-1.2,1.8-2.1c0.4-0.9,0.7-1.9,0.7-3c0-1.1-0.2-2.1-0.7-2.9c-0.4-0.9-1-1.6-1.8-2.1
			c-0.8-0.5-1.6-0.8-2.6-0.8c-1,0-1.8,0.2-2.6,0.7c-0.8,0.5-1.4,1.2-1.8,2.1c-0.4,0.9-0.7,1.9-0.7,3s0.2,2.1,0.6,3
			c0.4,0.9,1,1.6,1.8,2.1c0.8,0.5,1.6,0.8,2.6,0.8C150.8,34.2,151.7,34,152.4,33.5z"/>
		<path fill="#767676" d="M180.6,22.8c0.8,1,1.2,2.4,1.2,4.1v7.8c0,0.2-0.1,0.4-0.2,0.6c-0.2,0.2-0.4,0.2-0.6,0.2
			c-0.2,0-0.4-0.1-0.6-0.2s-0.2-0.4-0.2-0.6v-7.8c0-1.2-0.3-2.2-0.9-3c-0.6-0.8-1.5-1.2-2.7-1.2c-0.8,0-1.5,0.2-2.2,0.6
			c-0.7,0.4-1.3,0.9-1.7,1.5c-0.4,0.6-0.6,1.3-0.6,2.1v7.8c0,0.2-0.1,0.4-0.2,0.6c-0.2,0.2-0.4,0.2-0.6,0.2c-0.2,0-0.4-0.1-0.6-0.2
			c-0.2-0.2-0.2-0.4-0.2-0.6v-7.8c0-1.2-0.3-2.2-0.8-2.9c-0.6-0.7-1.4-1.1-2.6-1.1c-0.8,0-1.5,0.2-2.1,0.6c-0.7,0.4-1.2,0.9-1.6,1.5
			c-0.4,0.6-0.6,1.3-0.6,2v7.8c0,0.2-0.1,0.4-0.2,0.6c-0.2,0.2-0.4,0.2-0.6,0.2c-0.2,0-0.4-0.1-0.6-0.2c-0.2-0.2-0.2-0.4-0.2-0.6
			V22.3c0-0.2,0.1-0.4,0.2-0.6c0.2-0.2,0.4-0.2,0.6-0.2c0.2,0,0.4,0.1,0.6,0.2c0.2,0.2,0.2,0.4,0.2,0.6v1.6c0.5-0.8,1.2-1.4,2-1.9
			c0.8-0.5,1.7-0.7,2.7-0.7c1.1,0,2,0.3,2.8,0.8c0.8,0.5,1.3,1.3,1.7,2.3c0.4-0.8,1.1-1.5,2.1-2.1c1-0.6,2.1-0.9,3.1-0.9
			C178.5,21.2,179.8,21.8,180.6,22.8z"/>
		<path fill="#767676" d="M196.1,22.2c1,0.6,1.8,1.5,2.3,2.6c0.6,1.1,0.8,2.3,0.8,3.7c0,1.4-0.3,2.6-0.8,3.7c-0.6,1.1-1.3,2-2.3,2.6
			c-1,0.6-2.1,0.9-3.3,0.9c-1.1,0-2.1-0.3-3-0.8c-0.9-0.5-1.6-1.2-2.1-2v7.3c0,0.2-0.1,0.4-0.2,0.6c-0.2,0.2-0.4,0.2-0.6,0.2
			c-0.2,0-0.4-0.1-0.6-0.2c-0.2-0.2-0.2-0.4-0.2-0.6V22.2c0-0.2,0.1-0.4,0.2-0.6c0.2-0.2,0.4-0.2,0.6-0.2c0.2,0,0.4,0.1,0.6,0.2
			c0.2,0.2,0.2,0.4,0.2,0.6V24c0.5-0.9,1.2-1.6,2.1-2.1c0.9-0.5,1.9-0.7,3-0.7C194,21.2,195.1,21.5,196.1,22.2z M195.3,33.4
			c0.8-0.5,1.4-1.2,1.8-2c0.4-0.9,0.7-1.8,0.7-2.9c0-1.1-0.2-2-0.7-2.9c-0.4-0.9-1-1.5-1.8-2c-0.8-0.5-1.6-0.7-2.6-0.7
			c-1,0-1.9,0.2-2.6,0.7c-0.8,0.5-1.4,1.2-1.8,2c-0.4,0.9-0.6,1.8-0.6,2.9s0.2,2.1,0.6,2.9c0.4,0.9,1,1.5,1.8,2
			c0.8,0.5,1.7,0.7,2.6,0.7C193.6,34.2,194.5,33.9,195.3,33.4z"/>
		<path fill="#767676" d="M204.4,35.3c-0.2,0.2-0.4,0.2-0.6,0.2s-0.4-0.1-0.6-0.2c-0.2-0.2-0.2-0.4-0.2-0.6V15.8
			c0-0.2,0.1-0.4,0.2-0.6c0.2-0.2,0.4-0.2,0.6-0.2s0.4,0.1,0.6,0.2c0.2,0.2,0.2,0.4,0.2,0.6v18.9C204.6,34.9,204.5,35.1,204.4,35.3z
			"/>
		<path fill="#767676" d="M220.6,28.2c-0.2,0.2-0.4,0.2-0.6,0.2h-10.5c0,1.1,0.2,2.1,0.7,3c0.5,0.9,1.1,1.6,1.9,2.1
			c0.8,0.5,1.8,0.8,3,0.8c0.9,0,1.7-0.2,2.4-0.6c0.7-0.4,1.3-0.8,1.7-1.4c0.2-0.2,0.4-0.3,0.6-0.3c0.2,0,0.4,0.1,0.5,0.2
			c0.1,0.1,0.2,0.3,0.2,0.5c0,0.2-0.1,0.4-0.3,0.6c-0.6,0.7-1.3,1.3-2.2,1.8c-0.9,0.5-1.8,0.7-2.8,0.7c-1.4,0-2.7-0.3-3.8-0.9
			c-1.1-0.6-1.9-1.5-2.6-2.6c-0.6-1.1-0.9-2.4-0.9-3.8c0-1.5,0.3-2.8,0.9-4c0.6-1.1,1.4-2,2.4-2.6c1-0.6,2.1-0.9,3.2-0.9
			c1.1,0,2.1,0.3,3.1,0.8c1,0.5,1.8,1.3,2.4,2.3s0.9,2.2,0.9,3.5C220.8,27.8,220.8,28,220.6,28.2z M211.4,23.7
			c-0.9,0.7-1.5,1.8-1.8,3.2h9.5v-0.2c-0.1-0.8-0.4-1.6-0.8-2.2c-0.5-0.6-1-1.1-1.7-1.4c-0.7-0.3-1.4-0.5-2.1-0.5
			C213.3,22.6,212.3,23,211.4,23.7z"/>
		<path fill="#767676" d="M223.3,32.7c0-0.2,0.1-0.4,0.4-0.6c0.1-0.1,0.3-0.2,0.4-0.2c0.2,0,0.4,0.1,0.6,0.3
			c1.1,1.4,2.5,2.2,4.4,2.2c0.9,0,1.7-0.2,2.3-0.6c0.7-0.4,1-1,1-1.8c0-0.8-0.3-1.4-0.9-1.7c-0.6-0.4-1.5-0.7-2.5-1
			c-1.5-0.4-2.7-0.9-3.6-1.5S224,26.2,224,25c0-0.8,0.2-1.4,0.6-2c0.4-0.6,1-1.1,1.7-1.4c0.7-0.3,1.6-0.5,2.5-0.5
			c0.8,0,1.6,0.2,2.4,0.5c0.8,0.3,1.5,0.8,2.1,1.5c0.2,0.1,0.2,0.3,0.2,0.6c0,0.2-0.1,0.4-0.3,0.6c-0.1,0.1-0.3,0.2-0.5,0.2
			c-0.2,0-0.4-0.1-0.5-0.2c-0.4-0.5-1-0.9-1.6-1.1s-1.3-0.4-2-0.4c-0.9,0-1.6,0.2-2.2,0.6c-0.6,0.4-0.9,1-0.9,1.8
			c0,0.7,0.4,1.3,1,1.7c0.6,0.4,1.6,0.7,2.8,1.1c1,0.2,1.8,0.5,2.4,0.8c0.6,0.3,1.1,0.7,1.5,1.2c0.4,0.5,0.6,1.2,0.6,2.1
			c0,1.2-0.5,2.2-1.4,2.9c-1,0.7-2.2,1.1-3.6,1.1c-2.3,0-4-0.8-5.4-2.5C223.3,33,223.3,32.8,223.3,32.7z"/>
	</g>
</g>
<g id="Capa_1">
	<g id="logo-int_3_">
		<rect x="12.6" y="39.6" fill="#FFFFFF" width="1.9" height="1.9"/>
		<rect x="16.3" y="39.6" fill="#FFFFFF" width="20.4" height="1.9"/>
		<rect x="38.6" y="39.6" fill="#FFFFFF" width="1.9" height="1.9"/>
		<rect x="38.6" y="28.5" fill="#FFFFFF" width="1.9" height="9.3"/>
		<path fill="#FFFFFF" d="M40.4,19.2H18.2v16.7h16.7v-5.6H23.7v-1.9h13v9.3H16.3V17.3h24.1V19.2z"/>
		<path fill="#FFFFFF" d="M40.4,22.9H21.9v9.3H33V34H20V21h20.4V22.9L40.4,22.9z"/>
		<rect x="38.6" y="24.8" fill="#FFFFFF" width="1.9" height="1.9"/>
		<rect x="12.6" y="17.3" fill="#FFFFFF" width="1.9" height="20.4"/>
		<rect x="23.7" y="24.8" fill="#FFFFFF" width="13" height="1.9"/>
		<rect x="12.6" y="13.6" fill="#FFFFFF" width="1.9" height="1.9"/>
		<rect x="16.3" y="13.6" fill="#FFFFFF" width="24.1" height="1.9"/>
	</g>
</g>
<g id="Capa_3">
</g>
</svg>
