<svg version="1.1" id="Capa_1" xmlns="http://www.w3.org/2000/svg" xmlns:xlink="http://www.w3.org/1999/xlink" x="0px" y="0px"
	 viewBox="0 0 233.2 52.8" style="enable-background:new 0 0 233.2 52.8;" xml:space="preserve">
<style type="text/css">
	.st0{fill:#FFFFFF;}
</style>
<g id="logo_1_">
	<g>
		<path class="st0" d="M74.6,20.3c0.3,0.3,0.5,0.7,0.5,1.2v12.3c0,2.3-0.7,3.9-2.1,5s-3.2,1.6-5.3,1.6c-0.6,0-1.3-0.1-2.3-0.3
			s-1.7-0.4-2.1-0.6c-0.9-0.4-1.4-0.9-1.4-1.6c0-0.1,0-0.3,0.1-0.4c0.1-0.4,0.3-0.7,0.6-0.9s0.6-0.3,0.9-0.3c0.2,0,0.4,0,0.5,0.1
			c0.1,0,0.5,0.2,1.4,0.5c0.8,0.3,1.6,0.5,2.3,0.5c1.4,0,2.4-0.3,3.1-0.8s1-1.3,1-2.3V33c-0.4,0.6-1,1.1-1.8,1.6s-1.7,0.7-2.6,0.7
			c-1.3,0-2.5-0.3-3.5-1c-1.1-0.7-1.9-1.6-2.5-2.7c-0.6-1.2-0.9-2.5-0.9-4s0.3-2.8,0.9-4c0.6-1.2,1.4-2.1,2.5-2.7c1-0.7,2.2-1,3.5-1
			c0.9,0,1.8,0.2,2.6,0.6c0.8,0.4,1.5,0.9,2,1.4v-0.3c0-0.5,0.2-0.9,0.5-1.2c0.3-0.3,0.7-0.5,1.2-0.5S74.3,20,74.6,20.3z M70.7,30.8
			c0.8-0.9,1.2-2,1.2-3.3s-0.4-2.4-1.2-3.3c-0.8-0.9-1.8-1.3-3-1.3s-2.2,0.4-3,1.3s-1.2,2-1.2,3.3s0.4,2.4,1.2,3.3
			c0.8,0.9,1.8,1.3,3,1.3C68.9,32.1,69.9,31.7,70.7,30.8z"/>
		<path class="st0" d="M87.8,20.3c0.4,0.3,0.6,0.7,0.6,1.1c0,0.6-0.1,1-0.4,1.3s-0.6,0.4-1.1,0.4c-0.3,0-0.6-0.1-0.9-0.2
			c-0.1,0-0.2-0.1-0.4-0.1c-0.2-0.1-0.4-0.1-0.6-0.1c-0.5,0-0.9,0.1-1.4,0.4c-0.4,0.3-0.8,0.7-1.1,1.3c-0.3,0.6-0.4,1.3-0.4,2.1v6.6
			c0,0.5-0.2,0.9-0.5,1.2s-0.7,0.5-1.2,0.5s-0.9-0.2-1.2-0.5s-0.5-0.7-0.5-1.2V21.8c0-0.5,0.2-0.9,0.5-1.2s0.7-0.5,1.2-0.5
			s0.9,0.2,1.2,0.5s0.5,0.7,0.5,1.2v0.4c0.4-0.8,1-1.3,1.8-1.7c0.8-0.4,1.6-0.6,2.5-0.6C87,19.8,87.4,20,87.8,20.3z"/>
		<path class="st0" d="M90.8,18c-0.3-0.2-0.4-0.6-0.4-1.1v-0.5c0-0.5,0.1-0.9,0.4-1.1c0.3-0.2,0.7-0.3,1.3-0.3
			c0.6,0,1.1,0.1,1.4,0.3c0.3,0.2,0.4,0.6,0.4,1.1v0.5c0,0.5-0.1,0.9-0.4,1.1s-0.7,0.3-1.4,0.3C91.5,18.3,91.1,18.2,90.8,18z
			 M93.4,34.4c-0.3,0.3-0.7,0.5-1.2,0.5s-0.9-0.2-1.2-0.5c-0.3-0.3-0.5-0.7-0.5-1.2V21.8c0-0.5,0.2-0.9,0.5-1.2
			c0.3-0.3,0.7-0.5,1.2-0.5s0.9,0.2,1.2,0.5c0.3,0.3,0.5,0.7,0.5,1.2v11.4C93.9,33.7,93.7,34.1,93.4,34.4z"/>
		<path class="st0" d="M110.5,14.9c0.3,0.3,0.5,0.7,0.5,1.2v17.1c0,0.5-0.2,0.9-0.5,1.2s-0.7,0.5-1.2,0.5s-0.9-0.2-1.2-0.5
			c-0.3-0.3-0.5-0.7-0.5-1.2c-0.5,0.5-1.1,1-1.9,1.4s-1.6,0.6-2.5,0.6c-1.3,0-2.4-0.3-3.5-1c-1-0.7-1.9-1.6-2.5-2.7
			c-0.6-1.1-0.9-2.5-0.9-4s0.3-2.8,0.9-4s1.4-2.1,2.4-2.7c1-0.7,2.2-1,3.4-1c0.9,0,1.7,0.2,2.5,0.5s1.4,0.7,2,1.2v-5.4
			c0-0.5,0.2-0.9,0.5-1.2s0.7-0.5,1.2-0.5S110.1,14.6,110.5,14.9z M106.6,30.8c0.8-0.9,1.1-2,1.1-3.3s-0.4-2.4-1.1-3.3
			c-0.8-0.9-1.7-1.3-2.9-1.3c-1.2,0-2.2,0.4-2.9,1.3c-0.8,0.9-1.1,2-1.1,3.3s0.4,2.4,1.1,3.3s1.7,1.3,2.9,1.3S105.8,31.7,106.6,30.8
			z"/>
		<path class="st0" d="M126.6,27.6c-0.2,0.2-0.4,0.2-0.6,0.2h-10.5c0,1.1,0.2,2.1,0.7,3c0.5,0.9,1.1,1.6,1.9,2.1s1.8,0.8,3,0.8
			c0.9,0,1.7-0.2,2.4-0.6c0.7-0.4,1.3-0.8,1.7-1.4c0.2-0.2,0.4-0.3,0.6-0.3s0.4,0.1,0.5,0.2c0.1,0.1,0.2,0.3,0.2,0.5
			c0,0.2-0.1,0.4-0.3,0.6c-0.6,0.7-1.3,1.3-2.2,1.8c-0.9,0.5-1.8,0.7-2.8,0.7c-1.4,0-2.7-0.3-3.8-0.9c-1.1-0.6-1.9-1.5-2.6-2.6
			c-0.6-1.1-0.9-2.4-0.9-3.8c0-1.5,0.3-2.8,0.9-4c0.6-1.1,1.4-2,2.4-2.6s2.1-0.9,3.2-0.9s2.1,0.3,3.1,0.8s1.8,1.3,2.4,2.3
			s0.9,2.2,0.9,3.5C126.9,27.2,126.8,27.4,126.6,27.6z M117.5,23.1c-0.9,0.7-1.5,1.8-1.8,3.2h9.5v-0.2c-0.1-0.8-0.4-1.6-0.8-2.2
			c-0.5-0.6-1-1.1-1.7-1.4s-1.4-0.5-2.1-0.5C119.4,22,118.4,22.4,117.5,23.1z"/>
		<path class="st0" d="M140.4,34.2c0,0.2-0.1,0.4-0.3,0.6c-0.2,0.2-0.4,0.3-0.6,0.3c-0.3,0-0.5-0.1-0.7-0.4l-4.2-5.5l-4.2,5.5
			c-0.2,0.2-0.4,0.3-0.7,0.3c-0.2,0-0.4-0.1-0.6-0.2c-0.2-0.1-0.2-0.3-0.2-0.5s0.1-0.4,0.2-0.5l4.5-5.8l-4.6-6
			c-0.1-0.1-0.2-0.3-0.2-0.5s0.1-0.4,0.3-0.6s0.4-0.2,0.6-0.2c0.3,0,0.5,0.1,0.7,0.4l4.3,5.6l4.2-5.6c0.2-0.2,0.4-0.4,0.7-0.4
			c0.2,0,0.4,0.1,0.6,0.2c0.1,0.1,0.2,0.3,0.2,0.5s-0.1,0.4-0.2,0.5l-4.5,5.9l4.5,5.9C140.3,33.8,140.4,34,140.4,34.2z"/>
		<path class="st0" d="M155.6,21c0.2,0.2,0.2,0.4,0.2,0.6v12.5c0,0.2-0.1,0.4-0.2,0.6c-0.2,0.2-0.4,0.2-0.6,0.2
			c-0.2,0-0.4-0.1-0.6-0.2s-0.2-0.4-0.2-0.6v-1.9c-0.5,0.8-1.2,1.5-2.1,2.1s-1.9,0.9-3,0.9c-1.2,0-2.4-0.3-3.3-1
			c-1-0.6-1.8-1.5-2.3-2.7c-0.6-1.1-0.8-2.4-0.8-3.8s0.3-2.7,0.9-3.8c0.6-1.1,1.4-2,2.3-2.6c1-0.6,2.1-0.9,3.3-0.9
			c1.1,0,2.1,0.3,3,0.8s1.6,1.2,2.1,2.1v-1.7c0-0.2,0.1-0.4,0.2-0.6s0.4-0.2,0.6-0.2C155.3,20.8,155.5,20.8,155.6,21z M151.9,32.9
			c0.8-0.5,1.4-1.2,1.8-2.1c0.4-0.9,0.7-1.9,0.7-3s-0.2-2.1-0.7-2.9c-0.4-0.9-1-1.6-1.8-2.1s-1.6-0.8-2.6-0.8s-1.8,0.2-2.6,0.7
			s-1.4,1.2-1.8,2.1s-0.7,1.9-0.7,3s0.2,2.1,0.6,3c0.4,0.9,1,1.6,1.8,2.1s1.6,0.8,2.6,0.8C150.2,33.6,151.1,33.4,151.9,32.9z"/>
		<path class="st0" d="M180,22.2c0.8,1,1.2,2.4,1.2,4.1v7.8c0,0.2-0.1,0.4-0.2,0.6c-0.2,0.2-0.4,0.2-0.6,0.2s-0.4-0.1-0.6-0.2
			c-0.2-0.2-0.2-0.4-0.2-0.6v-7.8c0-1.2-0.3-2.2-0.9-3c-0.6-0.8-1.5-1.2-2.7-1.2c-0.8,0-1.5,0.2-2.2,0.6s-1.3,0.9-1.7,1.5
			s-0.6,1.3-0.6,2.1v7.8c0,0.2-0.1,0.4-0.2,0.6c-0.2,0.2-0.4,0.2-0.6,0.2s-0.4-0.1-0.6-0.2s-0.2-0.4-0.2-0.6v-7.8
			c0-1.2-0.3-2.2-0.8-2.9c-0.6-0.7-1.4-1.1-2.6-1.1c-0.8,0-1.5,0.2-2.1,0.6c-0.7,0.4-1.2,0.9-1.6,1.5c-0.4,0.6-0.6,1.3-0.6,2v7.8
			c0,0.2-0.1,0.4-0.2,0.6c-0.2,0.2-0.4,0.2-0.6,0.2s-0.4-0.1-0.6-0.2s-0.2-0.4-0.2-0.6V21.7c0-0.2,0.1-0.4,0.2-0.6
			c0.2-0.2,0.4-0.2,0.6-0.2s0.4,0.1,0.6,0.2c0.2,0.2,0.2,0.4,0.2,0.6v1.6c0.5-0.8,1.2-1.4,2-1.9s1.7-0.7,2.7-0.7
			c1.1,0,2,0.3,2.8,0.8s1.3,1.3,1.7,2.3c0.4-0.8,1.1-1.5,2.1-2.1s2.1-0.9,3.1-0.9C178,20.6,179.2,21.2,180,22.2z"/>
		<path class="st0" d="M195.6,21.6c1,0.6,1.8,1.5,2.3,2.6c0.6,1.1,0.8,2.3,0.8,3.7c0,1.4-0.3,2.6-0.8,3.7c-0.5,1.1-1.3,2-2.3,2.6
			s-2.1,0.9-3.3,0.9c-1.1,0-2.1-0.3-3-0.8s-1.6-1.2-2.1-2v7.3c0,0.2-0.1,0.4-0.2,0.6c-0.2,0.2-0.4,0.2-0.6,0.2
			c-0.2,0-0.4-0.1-0.6-0.2c-0.2-0.2-0.2-0.4-0.2-0.6v-18c0-0.2,0.1-0.4,0.2-0.6c0.2-0.2,0.4-0.2,0.6-0.2c0.2,0,0.4,0.1,0.6,0.2
			c0.2,0.2,0.2,0.4,0.2,0.6v1.8c0.5-0.9,1.2-1.6,2.1-2.1c0.9-0.5,1.9-0.7,3-0.7C193.5,20.6,194.6,20.9,195.6,21.6z M194.7,32.8
			c0.8-0.5,1.4-1.2,1.8-2c0.4-0.9,0.7-1.8,0.7-2.9s-0.2-2-0.7-2.9c-0.4-0.9-1-1.5-1.8-2s-1.6-0.7-2.6-0.7s-1.9,0.2-2.6,0.7
			c-0.8,0.5-1.4,1.2-1.8,2c-0.4,0.9-0.6,1.8-0.6,2.9s0.2,2.1,0.6,2.9c0.4,0.9,1,1.5,1.8,2s1.7,0.7,2.6,0.7
			C193.1,33.6,193.9,33.3,194.7,32.8z"/>
		<path class="st0" d="M203.8,34.7c-0.2,0.2-0.4,0.2-0.6,0.2c-0.2,0-0.4-0.1-0.6-0.2s-0.2-0.4-0.2-0.6V15.2c0-0.2,0.1-0.4,0.2-0.6
			c0.2-0.2,0.4-0.2,0.6-0.2c0.2,0,0.4,0.1,0.6,0.2c0.2,0.2,0.2,0.4,0.2,0.6v18.9C204,34.3,203.9,34.5,203.8,34.7z"/>
		<path class="st0" d="M220,27.6c-0.2,0.2-0.4,0.2-0.6,0.2h-10.5c0,1.1,0.2,2.1,0.7,3c0.5,0.9,1.1,1.6,1.9,2.1
			c0.8,0.5,1.8,0.8,3,0.8c0.9,0,1.7-0.2,2.4-0.6c0.7-0.4,1.3-0.8,1.7-1.4c0.2-0.2,0.4-0.3,0.6-0.3c0.2,0,0.4,0.1,0.5,0.2
			c0.1,0.1,0.2,0.3,0.2,0.5c0,0.2-0.1,0.4-0.3,0.6c-0.6,0.7-1.3,1.3-2.2,1.8s-1.8,0.7-2.8,0.7c-1.4,0-2.7-0.3-3.8-0.9
			c-1.1-0.6-1.9-1.5-2.6-2.6c-0.6-1.1-0.9-2.4-0.9-3.8c0-1.5,0.3-2.8,0.9-4c0.6-1.1,1.4-2,2.4-2.6s2.1-0.9,3.2-0.9
			c1.1,0,2.1,0.3,3.1,0.8s1.8,1.3,2.4,2.3s0.9,2.2,0.9,3.5C220.3,27.2,220.2,27.4,220,27.6z M210.9,23.1c-0.9,0.7-1.5,1.8-1.8,3.2
			h9.5v-0.2c-0.1-0.8-0.4-1.6-0.8-2.2c-0.5-0.6-1-1.1-1.7-1.4S214.7,22,214,22C212.8,22,211.8,22.4,210.9,23.1z"/>
		<path class="st0" d="M222.7,32.1c0-0.2,0.1-0.4,0.4-0.6c0.1-0.1,0.3-0.2,0.4-0.2c0.2,0,0.4,0.1,0.6,0.3c1.1,1.4,2.5,2.2,4.4,2.2
			c0.9,0,1.7-0.2,2.3-0.6c0.7-0.4,1-1,1-1.8c0-0.8-0.3-1.4-0.9-1.7c-0.6-0.4-1.5-0.7-2.6-1c-1.5-0.4-2.7-0.9-3.6-1.5
			c-0.9-0.6-1.3-1.5-1.3-2.7c0-0.8,0.2-1.4,0.6-2c0.4-0.6,1-1.1,1.7-1.4s1.6-0.5,2.5-0.5c0.8,0,1.6,0.2,2.4,0.5
			c0.8,0.3,1.5,0.8,2.1,1.5c0.2,0.1,0.2,0.3,0.2,0.6c0,0.2-0.1,0.4-0.3,0.6c-0.1,0.1-0.3,0.2-0.5,0.2s-0.4-0.1-0.5-0.2
			c-0.4-0.5-1-0.9-1.6-1.1s-1.3-0.4-2-0.4c-0.9,0-1.6,0.2-2.2,0.6c-0.6,0.4-0.9,1-0.9,1.8c0,0.7,0.4,1.3,1,1.7
			c0.6,0.4,1.6,0.7,2.8,1.1c1,0.2,1.8,0.5,2.4,0.8c0.6,0.3,1.1,0.7,1.5,1.2s0.6,1.2,0.6,2.1c0,1.2-0.5,2.2-1.4,2.9
			c-1,0.7-2.2,1.1-3.6,1.1c-2.3,0-4-0.8-5.4-2.5C222.8,32.4,222.7,32.2,222.7,32.1z"/>
	</g>
	<g>
		<path class="st0" d="M26.4,0C11.9,0,0,11.8,0,26.4s11.8,26.4,26.4,26.4S52.8,41,52.8,26.4C52.8,11.8,41,0,26.4,0z M13.9,40.8H12
			v-1.9h1.9V40.8z M13.9,37.1H12V16.7h1.9V37.1z M13.9,14.9H12V13h1.9V14.9z M36.1,40.8H15.7v-1.9h20.4V40.8z M36.1,26h-13v-1.9h13
			V26z M39.8,40.8h-1.9v-1.9h1.9V40.8z M39.8,37.1h-1.9v-9.3h1.9V37.1z M39.8,26h-1.9v-1.9h1.9V26z M39.8,22.3H21.3v9.3h11.1v1.8
			h-13v-13h20.4L39.8,22.3z M39.8,18.6H17.6v16.7h16.7v-5.6H23.1v-1.9h13v9.3H15.7V16.7h24.1V18.6z M39.8,14.9H15.7V13h24.1V14.9z"
			/>
	</g>
</g>
</svg>
